<svg xmlns="http://www.w3.org/2000/svg" viewBox="0 0 512 512">
  <rect width="512" height="512" rx="100" fill="#f97316"/>
  <path d="M160 144h192c17.67 0 32 14.33 32 32v16c0 17.67-14.33 32-32 32H160c-17.67 0-32-14.33-32-32v-16c0-17.67 14.33-32 32-32zm192 128H160c-17.67 0-32 14.33-32 32v16c0 17.67 14.33 32 32 32h192c17.67 0 32-14.33 32-32v-16c0-17.67-14.33-32-32-32zM144 400c0-17.67 14.33-32 32-32h160c17.67 0 32 14.33 32 32v16c0 17.67-14.33 32-32 32H176c-17.67 0-32-14.33-32-32v-16z" fill="#ffffff"/>
  <path d="M256 64C150 64 64 150 64 256s86 192 192 192 192-86 192-192S362 64 256 64zm0 344c-84 0-152-68-152-152s68-152 152-152 152 68 152 152-68 152-152 152z" fill="#ffffff" opacity="0.2"/>
</svg>
